<?xml version="1.0" encoding="UTF-8" standalone="no"?>
<!DOCTYPE svg PUBLIC "-//W3C//DTD SVG 1.1//EN" "http://www.w3.org/Graphics/SVG/1.1/DTD/svg11.dtd">
<svg width="100%" height="100%" viewBox="0 0 222 50" version="1.1" xmlns="http://www.w3.org/2000/svg" xmlns:xlink="http://www.w3.org/1999/xlink" xml:space="preserve" xmlns:serif="http://www.serif.com/" style="fill-rule:evenodd;clip-rule:evenodd;stroke-linejoin:round;stroke-miterlimit:2;">
    <g transform="matrix(1,0,0,1,1.41477,0)">
        <g transform="matrix(0.389233,0,0,0.389233,66.0012,3.73163)">
            <g id="svelte-logo.5c5d7d20.svg">
                <g>
                    <g id="a">
                        <path d="M87.269,14.819C76.869,-0.066 56.328,-4.478 41.477,4.984L15.4,21.608C8.277,26.087 3.363,33.369 1.876,41.651C0.632,48.551 1.726,55.673 4.984,61.882C2.751,65.269 1.228,69.073 0.507,73.065C-0.993,81.506 0.972,90.205 5.955,97.181C16.355,112.068 36.897,116.481 51.746,107.016L77.829,90.392C84.951,85.913 89.862,78.63 91.347,70.349C92.593,63.449 91.501,56.327 88.247,50.117C90.478,46.73 92,42.926 92.721,38.935C94.223,30.494 92.258,21.795 87.274,14.819" style="fill:rgb(255,62,0);fill-rule:nonzero;"/>
                        <path d="M38.929,98.582C30.541,100.762 21.632,97.46 16.692,90.339C13.696,86.144 12.514,80.914 13.416,75.839C13.567,75.014 13.775,74.2 14.039,73.404L14.53,71.904L15.867,72.885C18.952,75.153 22.402,76.878 26.067,77.985L27.036,78.279L26.947,79.247C26.829,80.622 27.203,81.996 28,83.122C29.488,85.269 32.172,86.265 34.7,85.607C35.266,85.457 35.805,85.22 36.3,84.907L62.382,68.281C63.672,67.469 64.562,66.15 64.833,64.65C65.103,63.12 64.747,61.544 63.845,60.279C62.357,58.132 59.673,57.136 57.145,57.792C56.579,57.943 56.04,58.179 55.545,58.492L45.592,64.837C43.954,65.878 42.167,66.662 40.292,67.163C31.904,69.344 22.995,66.041 18.055,58.92C15.058,54.726 13.876,49.495 14.778,44.42C15.674,39.44 18.63,35.062 22.915,32.37L49,15.747C50.638,14.705 52.425,13.919 54.3,13.418C62.688,11.238 71.597,14.54 76.537,21.661C79.533,25.855 80.715,31.086 79.814,36.161C79.662,36.986 79.453,37.799 79.19,38.596L78.699,40.096L77.363,39.117C74.278,36.849 70.829,35.124 67.163,34.017L66.193,33.723L66.283,32.755C66.4,31.379 66.028,30.005 65.231,28.877C63.743,26.731 61.059,25.735 58.531,26.392C57.965,26.542 57.426,26.779 56.931,27.092L30.842,43.719C29.552,44.53 28.662,45.849 28.393,47.349C28.122,48.879 28.477,50.456 29.379,51.721C30.867,53.867 33.551,54.864 36.079,54.208C36.645,54.057 37.184,53.821 37.679,53.508L47.631,47.166C49.268,46.124 51.056,45.338 52.931,44.838C61.319,42.658 70.227,45.96 75.167,53.081C78.164,57.275 79.346,62.506 78.444,67.581C77.55,72.561 74.596,76.94 70.314,79.635L44.229,96.253C42.592,97.295 40.804,98.081 38.929,98.582" style="fill:white;fill-rule:nonzero;"/>
                    </g>
                </g>
            </g>
        </g>
        <g transform="matrix(1,0,0,1,-7.88615,-0.872019)">
            <g>
                <g transform="matrix(1,0,0,1,110.742,39.5067)">
                    <text x="0px" y="0px" style="font-family:'SegoeUI', 'Segoe UI', sans-serif;font-size:35.979px;">ve<tspan x="36.049px " y="0px ">l</tspan>te</text>
                </g>
                <g transform="matrix(1,0,0,1,184.313,39.3574)">
                    <text x="0px" y="0px" style="font-family:'SegoeUI', 'Segoe UI', sans-serif;font-size:35.979px;">Kit</text>
                </g>
            </g>
        </g>
    </g>
</svg>
