<?xml version="1.0" encoding="UTF-8" standalone="no"?>
<!DOCTYPE svg PUBLIC "-//W3C//DTD SVG 1.1//EN" "http://www.w3.org/Graphics/SVG/1.1/DTD/svg11.dtd">
<svg width="100%" height="100%" viewBox="0 0 222 50" version="1.1" xmlns="http://www.w3.org/2000/svg" xmlns:xlink="http://www.w3.org/1999/xlink" xml:space="preserve" xmlns:serif="http://www.serif.com/" style="fill-rule:evenodd;clip-rule:evenodd;stroke-linejoin:round;stroke-miterlimit:2;">
    <g id="Group" transform="matrix(1,0,0,1,14.153,0)">
        <g id="Shape" transform="matrix(1,0,0,1,0,1.308)">
            <path d="M19.991,1L19.681,4.968C17.76,4.125 15.679,3.708 13.581,3.747C11.208,3.626 8.892,4.515 7.209,6.191C5.703,7.823 4.907,9.989 5,12.208C4.909,14.419 5.687,16.58 7.167,18.225C8.693,19.825 10.841,20.685 13.049,20.579C14.106,20.586 15.16,20.469 16.189,20.23L16.189,14.13L11.1,14.13L11.1,10.421L20.7,10.421L20.7,23.021C18.194,23.744 15.607,24.154 13,24.242C9.019,24.242 5.879,23.283 3.624,21.364C1.194,19.315 0,16.394 0,12.513C0,8.546 1.15,5.45 3.45,3.27C5.794,1.09 8.934,0 13,0C15.366,-0.005 17.721,0.332 19.991,1Z" style="fill:rgb(193,193,193);fill-rule:nonzero;"/>
        </g>
        <g id="Shape-2" transform="matrix(1,0,0,1,26.979,7.412)">
            <path d="M9.155,18.138C6.677,18.289 4.238,17.441 2.389,15.784C0.706,14.004 -0.16,11.6 0,9.156C-0.107,6.832 0.614,4.543 2.035,2.7C3.531,0.893 5.794,-0.108 8.138,0C11.181,0 13.398,1 14.728,2.965C15.873,4.614 16.453,7.137 16.453,10.465L4.334,10.465C4.347,11.693 4.895,12.856 5.834,13.647C6.81,14.462 8.058,14.882 9.328,14.824L9.512,14.824C11.515,14.733 13.463,14.132 15.17,13.08L15.17,16.743C13.314,17.706 11.245,18.186 9.155,18.138ZM8.4,3.314C7.352,3.254 6.325,3.629 5.562,4.349C4.82,5.199 4.401,6.284 4.378,7.412L12.118,7.412C11.94,4.693 10.691,3.314 8.4,3.314Z" style="fill:rgb(193,193,193);fill-rule:nonzero;"/>
        </g>
        <g id="Shape-3" transform="matrix(1,0,0,1,48.828,7.494)">
            <path d="M11.765,0.616L11.455,4.016C10.146,3.557 8.773,3.307 7.386,3.275C5.573,3.275 4.686,3.929 4.686,5.193C4.686,5.893 5.349,6.457 6.72,6.893C8.061,7.244 9.353,7.757 10.57,8.42C11.917,9.294 12.694,10.829 12.6,12.432C12.671,14.168 11.81,15.816 10.344,16.748C8.829,17.671 7.075,18.127 5.302,18.056C3.553,18.021 1.815,17.772 0.127,17.315L0.4,13.609C1.789,14.353 3.335,14.756 4.911,14.786C5.587,14.813 6.257,14.662 6.857,14.35C7.516,14.068 7.938,13.409 7.918,12.693C7.918,11.777 7.255,11.123 5.884,10.687C4.576,10.292 3.292,9.824 2.036,9.287C0.678,8.467 -0.11,6.951 0,5.368C-0.07,3.723 0.739,2.16 2.123,1.268C3.553,0.38 5.217,-0.06 6.9,0.005C8.54,0.018 10.173,0.223 11.765,0.616Z" style="fill:rgb(193,193,193);fill-rule:nonzero;"/>
        </g>
        <g id="Shape-4" transform="matrix(1,0,0,1,67.89,7.804)">
            <path d="M16.055,0.087L16.055,17.309L11.765,17.309L11.765,14.955L11.677,14.955C10.297,16.719 8.166,17.736 5.927,17.7C4.196,17.815 2.512,17.084 1.415,15.74C0.389,14.344 -0.113,12.629 -0,10.9L0,0L4.555,0L4.555,9.2C4.51,10.302 4.63,11.404 4.909,12.47C5.278,13.544 6.343,14.232 7.474,14.127C8.862,14.157 10.138,13.346 10.7,12.077C11.262,10.94 11.537,9.683 11.5,8.415L11.5,0.087L16.055,0.087Z" style="fill:rgb(193,193,193);fill-rule:nonzero;"/>
        </g>
        <g id="Shape-5" transform="matrix(1,0,0,1,91.552,7.456)">
            <path d="M0,17.7L0,0.436L4.334,0.436L4.334,2.747L4.422,2.747C5.745,0.914 7.915,-0.123 10.172,0C11.893,-0.11 13.568,0.603 14.683,1.918C15.71,3.314 16.212,5.029 16.1,6.758L16.1,17.658L11.5,17.658L11.5,8.458C11.545,7.356 11.425,6.254 11.146,5.188C10.776,4.114 9.711,3.426 8.58,3.532C7.192,3.501 5.915,4.312 5.352,5.581C4.79,6.718 4.515,7.975 4.552,9.243L4.552,17.7L0,17.7Z" style="fill:rgb(193,193,193);fill-rule:nonzero;"/>
        </g>
        <g id="Shape-6" transform="matrix(1,0,0,1,114.064,0)">
            <path d="M7.3,25.506C5.055,25.644 2.897,24.58 1.639,22.716C0.457,20.827 -0.116,18.619 0,16.394C-0.102,14.178 0.485,11.984 1.68,10.116C2.98,8.286 5.146,7.261 7.386,7.416C9.418,7.348 11.368,8.238 12.649,9.816L12.649,0L17.2,0L17.2,25.114L12.782,25.114L12.782,23.152L12.65,23.152C11.343,24.741 9.354,25.616 7.3,25.506ZM8.581,10.987C7.296,10.952 6.108,11.693 5.573,12.862C5.008,13.967 4.733,15.198 4.773,16.438C4.726,17.725 5.016,19.003 5.614,20.144C6.154,21.335 7.359,22.092 8.666,22.062C9.986,22.101 11.214,21.368 11.806,20.187C12.415,19.049 12.72,17.772 12.691,16.481C12.73,15.192 12.391,13.919 11.718,12.819C11.092,11.677 9.883,10.971 8.581,10.987Z" style="fill:rgb(193,193,193);fill-rule:nonzero;"/>
        </g>
        <g id="Shape-7" transform="matrix(1,0,0,1,138.831,0)">
            <path d="M0,25.156L0,0L4.555,0L4.555,10.2C5.791,8.385 7.89,7.341 10.083,7.453C11.815,7.353 13.499,8.062 14.638,9.371C15.664,10.767 16.166,12.482 16.053,14.211L16.053,25.111L11.5,25.111L11.5,15.911C11.545,14.809 11.425,13.707 11.146,12.641C10.776,11.568 9.711,10.881 8.58,10.987C7.191,10.955 5.914,11.766 5.351,13.036C4.789,14.173 4.514,15.43 4.551,16.698L4.551,25.156L0,25.156Z" style="fill:rgb(193,193,193);fill-rule:nonzero;"/>
        </g>
        <g id="Shape-8" transform="matrix(1,0,0,1,161.343,7.412)">
            <path d="M9.155,18.138C6.677,18.289 4.238,17.441 2.389,15.784C0.781,14.242 0,12.074 0,9.156C-0.107,6.832 0.614,4.543 2.035,2.7C3.531,0.893 5.794,-0.108 8.138,0C11.181,0 13.398,1 14.728,2.965C15.873,4.614 16.453,7.137 16.453,10.465L4.334,10.465C4.347,11.693 4.895,12.856 5.834,13.647C6.81,14.462 8.058,14.882 9.328,14.824L9.508,14.824C11.513,14.733 13.462,14.133 15.17,13.08L15.17,16.743C13.314,17.706 11.245,18.186 9.155,18.138ZM8.4,3.314C7.352,3.254 6.325,3.629 5.562,4.349C4.82,5.199 4.401,6.284 4.378,7.412L12.118,7.412C11.94,4.693 10.691,3.314 8.4,3.314Z" style="fill:rgb(193,193,193);fill-rule:nonzero;"/>
        </g>
        <g id="Shape-9" transform="matrix(1,0,0,1,184.386,0.436)">
            <path d="M4.556,24.678L0,24.678L0,7.456L4.556,7.456L4.556,24.678ZM4.556,4.278L0,4.278L0,0L4.556,0L4.556,4.278Z" style="fill:rgb(193,193,193);fill-rule:nonzero;"/>
        </g>
        <g id="Shape-10" transform="matrix(1,0,0,1,194.735,2.965)">
            <path d="M3.361,16.961L3.361,8.2L0,8.2L0,4.927L3.361,4.927L3.361,1.439L7.917,0L7.917,4.927L11.942,4.927L11.942,8.2L7.917,8.2L7.917,16.222C7.917,18.14 8.625,19.056 10.04,19.056C10.764,19.09 11.483,18.924 12.119,18.576L12.252,22.108C11.156,22.402 10.026,22.548 8.891,22.544C7.374,22.645 5.882,22.107 4.778,21.062C3.785,19.935 3.275,18.461 3.361,16.961Z" style="fill:rgb(193,193,193);fill-rule:nonzero;"/>
        </g>
    </g>
    <g id="Group-2" transform="matrix(1,0,0,1,0,27.904)">
        <g id="Shape-11" transform="matrix(1,0,0,1,0,1.788)">
            <path d="M0,19.01L0,0L2.433,0L12.252,16.7L12.252,0L14.152,0L14.152,18.966L11.588,18.966L1.9,2.616L1.9,18.966L0,18.966L0,19.01Z" style="fill-rule:nonzero;"/>
        </g>
        <g id="Shape-12" transform="matrix(1,0,0,1,23.883,6.584)">
            <path d="M6.59,14.476C4.674,14.578 2.819,13.768 1.59,12.295C0.486,10.847 -0.077,9.057 0,7.238C-0.075,5.418 0.488,3.628 1.592,2.18C2.812,0.696 4.673,-0.116 6.59,0C8.506,-0.102 10.361,0.707 11.59,2.18C12.694,3.629 13.256,5.419 13.18,7.238C13.256,9.057 12.693,10.847 11.588,12.295C10.369,13.78 8.508,14.592 6.59,14.476ZM6.59,1.439C5.239,1.396 3.949,2.017 3.14,3.1C2.309,4.316 1.89,5.767 1.946,7.238C1.88,8.699 2.3,10.141 3.14,11.338C3.933,12.444 5.23,13.083 6.59,13.038C7.95,13.083 9.247,12.444 10.04,11.338C10.874,10.138 11.294,8.698 11.234,7.238C11.3,5.777 10.88,4.335 10.04,3.138C9.247,2.032 7.95,1.393 6.59,1.439Z" style="fill-rule:nonzero;"/>
        </g>
        <g id="Shape-13" transform="matrix(1,0,0,1,46.749,6.584)">
            <path d="M0.088,14.214L0.088,3.4C0.088,2.006 0.044,0.959 0,0.305L1.725,0.305L1.725,3.005L1.769,3.005C2.565,1 3.8,0 5.4,0C5.803,-0.006 6.205,0.053 6.59,0.174L6.59,1.962C6.175,1.831 5.741,1.772 5.307,1.788C4.094,1.772 2.988,2.499 2.521,3.619C1.999,4.798 1.757,6.081 1.813,7.369L1.813,14.214L0.088,14.214Z" style="fill-rule:nonzero;"/>
        </g>
        <g id="Shape-14" transform="matrix(1,0,0,1,61.3,0.392)">
            <path d="M5.794,20.71C4.091,20.787 2.459,19.999 1.46,18.617C0.421,17.109 -0.092,15.3 0,13.472C-0.116,11.626 0.365,9.792 1.371,8.24C2.418,6.848 4.1,6.076 5.838,6.191C6.981,6.165 8.097,6.552 8.978,7.281C9.523,7.685 9.95,8.227 10.216,8.851L10.216,0L11.94,0L11.94,20.4L10.217,20.4L10.217,18.182C9.387,19.834 7.639,20.833 5.794,20.71ZM6.014,7.63C4.64,7.546 3.339,8.28 2.7,9.5C2.111,10.722 1.822,12.068 1.859,13.424C1.791,14.785 2.081,16.139 2.7,17.353C3.338,18.576 4.641,19.312 6.017,19.228C7.381,19.257 8.644,18.49 9.246,17.266C9.9,16.096 10.221,14.769 10.175,13.429C10.221,12.089 9.9,10.762 9.246,9.592C8.635,8.375 7.377,7.611 6.015,7.63L6.014,7.63Z" style="fill-rule:nonzero;"/>
        </g>
        <g id="Shape-15" transform="matrix(1,0,0,1,83.944,0.392)">
            <path d="M0,20.405L0,0L1.725,0L1.725,8.894C2.5,7.177 4.268,6.114 6.148,6.234C7.627,6.11 9.074,6.733 10,7.892C10.756,9.168 11.11,10.641 11.017,12.121L11.017,20.405L9.288,20.405L9.288,12.121C9.359,11.043 9.161,9.965 8.713,8.982C8.116,8.064 7.062,7.545 5.971,7.63C4.657,7.572 3.414,8.244 2.742,9.374C2.089,10.449 1.766,11.692 1.813,12.949L1.813,20.361L0,20.361L0,20.405Z" style="fill-rule:nonzero;"/>
        </g>
        <g id="Shape-16" transform="matrix(1,0,0,1,104.776,6.627)">
            <path d="M6.413,14.476C4.622,14.611 2.86,13.952 1.597,12.676C0.421,11.118 -0.147,9.184 0,7.238C-0.094,5.355 0.486,3.499 1.636,2.005C2.664,0.692 4.26,-0.053 5.926,0C7.609,-0.088 9.227,0.684 10.216,2.049C11.149,3.484 11.599,5.18 11.5,6.889L11.5,7.761L1.858,7.761C1.798,9.112 2.222,10.442 3.052,11.51C3.886,12.551 5.168,13.134 6.5,13.08C7.218,13.073 7.932,12.971 8.623,12.775L8.979,12.639C9.495,12.463 9.997,12.246 10.479,11.99L10.479,13.734C9.188,14.254 7.805,14.506 6.413,14.476ZM6.013,1.439C4.805,1.448 3.672,2.032 2.962,3.009C2.253,3.933 1.878,5.071 1.9,6.235L9.6,6.235C9.655,5.071 9.362,3.918 8.759,2.921C8.19,1.959 7.132,1.387 6.015,1.439L6.013,1.439Z" style="fill-rule:nonzero;"/>
        </g>
        <g id="Shape-17" transform="matrix(1,0,0,1,124.855,6.627)">
            <path d="M0,13.821L0.177,12.164C1.319,12.729 2.574,13.027 3.848,13.036C4.636,13.061 5.411,12.831 6.059,12.382C6.654,11.985 7.005,11.309 6.988,10.594C6.898,9.537 6.21,8.62 5.219,8.24C4.157,7.717 3.052,7.15 1.99,6.627C0.927,6.079 0.246,4.989 0.221,3.793C0.152,2.63 0.71,1.515 1.681,0.872C2.611,0.261 3.709,-0.044 4.821,0C6.011,0.008 7.192,0.214 8.315,0.61L8.138,2.093C7.15,1.656 6.08,1.433 5,1.439C2.966,1.439 1.948,2.224 1.948,3.75C1.948,4.45 2.567,5.058 3.761,5.668C5.795,6.668 6.945,7.238 7.122,7.368C8.241,8.058 8.928,9.279 8.935,10.594C8.98,11.842 8.332,13.017 7.254,13.646C6.27,14.246 5.133,14.548 3.981,14.518C2.624,14.516 1.277,14.281 -0,13.821Z" style="fill-rule:nonzero;"/>
        </g>
        <g id="Shape-18" transform="matrix(1,0,0,1,142.104,6.627)">
            <path d="M0,13.821L0.177,12.164C1.319,12.729 2.574,13.027 3.848,13.036C4.636,13.061 5.411,12.831 6.059,12.382C6.654,11.985 7.005,11.309 6.988,10.594C6.898,9.537 6.21,8.62 5.219,8.24C4.157,7.717 3.052,7.15 1.99,6.627C0.927,6.079 0.246,4.989 0.221,3.793C0.152,2.63 0.71,1.515 1.681,0.872C2.611,0.261 3.709,-0.044 4.821,0C6.011,0.008 7.192,0.214 8.315,0.61L8.138,2.093C7.15,1.656 6.08,1.433 5,1.439C2.966,1.439 1.948,2.224 1.948,3.75C1.948,4.45 2.567,5.058 3.761,5.668C5.795,6.668 6.945,7.238 7.122,7.368C8.241,8.058 8.928,9.279 8.935,10.594C8.98,11.842 8.332,13.017 7.254,13.646C6.27,14.246 5.133,14.548 3.981,14.518C2.624,14.516 1.277,14.281 -0,13.821Z" style="fill-rule:nonzero;"/>
        </g>
        <g id="Shape-19" transform="matrix(1,0,0,1,159.574,6.627)">
            <path d="M6.413,14.476C4.622,14.611 2.86,13.952 1.597,12.676C0.421,11.118 -0.147,9.184 0,7.238C-0.094,5.355 0.486,3.499 1.636,2.005C2.664,0.692 4.26,-0.053 5.926,0C7.609,-0.088 9.227,0.684 10.216,2.049C11.149,3.484 11.599,5.18 11.5,6.889L11.5,7.761L1.858,7.761C1.798,9.112 2.222,10.442 3.052,11.51C3.886,12.551 5.168,13.134 6.5,13.08C7.218,13.073 7.932,12.971 8.623,12.775L8.761,12.725C9.358,12.54 9.934,12.294 10.481,11.99L10.481,13.734C9.189,14.254 7.805,14.507 6.413,14.476ZM6.013,1.439C4.805,1.448 3.672,2.032 2.962,3.009C2.27,3.942 1.898,5.074 1.9,6.235L9.6,6.235C9.655,5.071 9.362,3.918 8.759,2.921C8.19,1.959 7.132,1.387 6.015,1.439L6.013,1.439Z" style="fill-rule:nonzero;"/>
        </g>
        <g id="Shape-20" transform="matrix(1,0,0,1,180.892,6.584)">
            <path d="M0.088,14.214L0.088,3.575C0.088,2.136 0.044,1.046 0,0.305L1.681,0.305L1.681,2.79L1.725,2.79C2.495,0.992 4.328,-0.131 6.28,-0C9.464,0 11.057,1.788 11.057,5.319L11.057,14.17L9.288,14.17L9.288,5.755C9.288,2.878 8.182,1.439 5.971,1.439C4.664,1.367 3.413,2.002 2.7,3.1C2.088,4.126 1.781,5.306 1.815,6.5L1.815,14.17L0.088,14.17L0.088,14.214Z" style="fill-rule:nonzero;"/>
        </g>
    </g>
</svg>
